<?xml version="1.0" encoding="UTF-8" standalone="no"?>
<!-- Generator: Adobe Illustrator 19.2.1, SVG Export Plug-In . SVG Version: 6.00 Build 0)  -->

<svg
   version="1.1"
   id="svg4619"
   inkscape:version="1.3 (0e150ed6c4, 2023-07-21)"
   sodipodi:docname="heliport-15.svg"
   x="0px"
   y="0px"
   width="15px"
   height="15px"
   viewBox="0 0 15 15"
   style="enable-background:new 0 0 15 15;"
   xml:space="preserve"
   xmlns:inkscape="http://www.inkscape.org/namespaces/inkscape"
   xmlns:sodipodi="http://sodipodi.sourceforge.net/DTD/sodipodi-0.dtd"
   xmlns="http://www.w3.org/2000/svg"
   xmlns:svg="http://www.w3.org/2000/svg"><defs
   id="defs1" /><sodipodi:namedview
   id="namedview1"
   pagecolor="#ffffff"
   bordercolor="#000000"
   borderopacity="0.25"
   inkscape:showpageshadow="2"
   inkscape:pageopacity="0.0"
   inkscape:pagecheckerboard="0"
   inkscape:deskcolor="#d1d1d1"
   inkscape:zoom="118.53333"
   inkscape:cx="7.4957818"
   inkscape:cy="7.4957818"
   inkscape:window-width="3840"
   inkscape:window-height="2036"
   inkscape:window-x="3572"
   inkscape:window-y="-12"
   inkscape:window-maximized="1"
   inkscape:current-layer="svg4619" />&#10;<path
   id="path10415"
   inkscape:connector-curvature="0"
   d="m 4.2294713,2.9617548 c -0.9392576,0 -0.9392576,0.9131046 0,0.9131046 H 7.9865017 V 4.787964 c -0.2601744,0 -0.4696288,0.2036223 -0.4696288,0.4565523 V 5.7010686 H 5.1687289 4.201951 4.1652261 C 3.951545,4.8976279 3.2077469,4.3324161 2.3509561,4.3314117 c -1.0375039,0 -1.87851515,0.8175939 -1.87851515,1.8262092 0,1.0086154 0.84101125,1.8262092 1.87851515,1.8262092 0.3495917,-9.131e-4 0.692045,-0.096606 0.9887565,-0.2763967 l 2.2986451,3.0157106 c 0.9462081,1.324458 2.6470157,1.369657 3.2874015,1.369657 h 4.6962878 c 0,0 0.939258,0 0.939258,-0.913105 v -0.907717 c 0,-0.6688491 -0.118346,-1.0335431 -0.469629,-1.3750442 L 11.273903,6.1576209 c 0,0 -0.555664,-0.4565523 -1.19605,-0.4565523 H 9.395388 V 5.2445163 c 0,-0.25293 -0.2094544,-0.4565523 -0.4696288,-0.4565523 V 3.8748594 H 12.68279 c 0.939257,0 0.939257,-0.9131046 0,-0.9131046 z M 2.3509561,5.2445163 c 0.518752,0 0.9392576,0.4087969 0.9392576,0.9131046 0,0.5043077 -0.4205056,0.9131046 -0.9392576,0.9131046 -0.518752,0 -0.9392576,-0.4087969 -0.9392576,-0.9131046 0,-0.5043077 0.4205056,-0.9131046 0.9392576,-0.9131046 z m 7.5140607,1.3696569 c 0.4696292,0 0.7416382,0.2950241 0.9392582,0.4565523 l 2.348144,2.2827616 H 9.8650168 c 0,0 -0.9392576,0 -0.9392576,-0.9131046 V 7.5272778 c 0,0 0,-0.9131046 0.9392576,-0.9131046 z"
   style="stroke-width:0.926089;fill:#82c971;fill-opacity:1" />&#10;</svg>
