<?xml version="1.0" encoding="UTF-8" standalone="no"?>
<svg
   version="1.1"
   id="Layer_1"
   x="0px"
   y="0px"
   viewBox="0 0 1642 1640.808"
   enable-background="new 0 0 1642 1640.808"
   xml:space="preserve"
   sodipodi:docname="latlng_icon.svg"
   inkscape:version="1.3 (0e150ed6c4, 2023-07-21)"
   xmlns:inkscape="http://www.inkscape.org/namespaces/inkscape"
   xmlns:sodipodi="http://sodipodi.sourceforge.net/DTD/sodipodi-0.dtd"
   xmlns="http://www.w3.org/2000/svg"
   xmlns:svg="http://www.w3.org/2000/svg"><defs
   id="defs1" /><sodipodi:namedview
   id="namedview1"
   pagecolor="#ffffff"
   bordercolor="#000000"
   borderopacity="0.25"
   inkscape:showpageshadow="2"
   inkscape:pageopacity="0.0"
   inkscape:pagecheckerboard="0"
   inkscape:deskcolor="#d1d1d1"
   inkscape:zoom="0.76622973"
   inkscape:cx="768.04642"
   inkscape:cy="856.79265"
   inkscape:window-width="3840"
   inkscape:window-height="2036"
   inkscape:window-x="3572"
   inkscape:window-y="-12"
   inkscape:window-maximized="1"
   inkscape:current-layer="Layer_1" />&#10;<path
   d="m 1458.5558,501.60299 c -1.0153,-4.38664 -3.4864,-8.01089 -7.1511,-10.7971 -283.5868,-419.170293 -984.7273,-413.593873 -1264.53931,0 -3.68571,2.80213 -6.14316,6.4367 -7.15112,10.79631 -127.719277,197.2847 -126.950006,430.06449 0,626.1586 1.00887,4.3604 3.46356,7.9926 7.15112,10.7971 284.26332,420.1674 983.58251,415.2858 1264.53931,0 3.6077,-2.7433 6.1238,-6.3524 7.1502,-10.7948 127.7211,-197.28622 126.95,-430.06602 9e-4,-626.15854 z m -38.4444,606.26021 c -39.9993,5.423 -208.1145,8.2076 -249.7175,8.8689 58.7583,-186.35229 60.2345,-413.05826 0,-604.10041 42.1005,0.66931 209.6851,3.4412 249.7158,8.86881 115.3944,179.83675 122.9062,394.81454 0,586.3627 z m -561.0421,304.4346 c -27.04201,1.4588 -52.81997,1.4588 -79.86748,-7e-4 -126.13301,-17.2172 -209.43651,-150.5134 -250.83673,-256.0908 180.77059,2.1965 396.22359,2.2522 581.54271,0 -41.358,105.4674 -124.6853,238.8727 -250.8385,256.0915 z m -344.70348,-294.898 c -62.05213,-187.55562 -62.11273,-417.69877 0,-605.4374 190.31946,-2.4679 419.77174,-2.46073 609.53948,0 62.052,187.55637 62.1118,417.69882 0,605.4374 -189.93939,2.4624 -419.35221,2.4654 -609.53948,0 z M 779.22385,217.06437 c 26.92635,-1.45239 52.69145,-1.46354 79.83811,8e-4 126.15227,17.21474 209.45474,150.54282 250.84494,256.09065 -181.4122,-2.20527 -397.02952,-2.24347 -581.54273,0 41.30752,-105.33853 124.58529,-238.86874 250.85968,-256.09145 z m 611.93175,263.21259 c -62.548,-3.50805 -171.4677,-5.54858 -234.0808,-6.48448 -31.3189,-84.31808 -82.5371,-176.55793 -158.3965,-236.35389 156.6872,37.38839 297.8659,119.42799 392.4773,242.83837 z M 639.59003,237.43938 c -75.88433,59.81586 -127.09139,152.07561 -158.3947,236.3531 -62.61853,0.9359 -171.53472,2.97723 -234.08165,6.48448 C 341.41464,357.26929 482.32812,274.96625 639.59003,237.43938 Z M 218.1595,521.4997 c 40.10678,-5.43716 209.10512,-8.22338 249.7177,-8.8688 -59.02093,187.18791 -59.98574,413.85331 0,604.1004 -42.298,-0.6725 -209.70639,-3.4451 -249.71678,-8.8681 C 102.76142,928.0178 95.259635,713.03925 218.1595,521.4997 Z m 28.95602,627.5864 c 62.49184,3.504 171.29972,5.546 234.08074,6.4837 31.53279,84.8957 82.84082,176.7973 158.3956,236.3537 -156.68632,-37.3875 -297.8651,-119.4262 -392.47634,-242.8374 z m 751.56278,242.8382 c 75.877,-59.8085 127.0914,-152.0724 158.3965,-236.3545 62.7241,-0.9369 171.5724,-2.9789 234.0816,-6.4837 -94.3047,123.014 -235.23,205.3154 -392.4781,242.8382 z"
   id="path1"
   inkscape:label="path1"
   style="fill:#589632;fill-opacity:1;stroke:#589632;stroke-width:39.6986;stroke-dasharray:none;stroke-opacity:1" />&#10;</svg>
